#!OML:ASF E:\Steps\Project 1\Capture day 1\Session 2\Subject.ASF
:FULLY-SPECIFIED
:DEGREES
447
root 3.55079 17.1088 7.59463 -154.108 -4.83981 176.952
lowerback -28.8577 -2.32306 -7.27796
upperback -1.43241 -1.24222 -0.680334
thorax 13.7418 -1.26234 2.6763
lowerneck -6.42174 -5.38624 2.4043
upperneck 4.80263 -7.26572 -2.62187
head 2.44323 -3.65975 -1.53853
rclavicle 1.31198e-014 9.54166e-015
rhumerus -39.1053 -19.1051 -76.0299
rradius 30.6906
rwrist -2.31637
rhand -6.66888 -53.7231
rfingers 7.12502
rthumb 19.1893 -82.7964
lclavicle 1.31198e-014 9.54166e-015
lhumerus -34.8769 18.3823 69.9731
lradius 15.0755
lwrist -15.0251
lhand -20.5404 -11.6003
lfingers 7.12502
lthumb 5.81807 18.2998
rfemur -22.1585 7.53364 19.235
rtibia 9.95678
rfoot -22.4695 -2.89795
rtoes -7.1509
lfemur -22.8845 -9.01171 -22.6461
ltibia 8.41888
lfoot -5.86006 -7.82671
ltoes -7.78307
448
root 3.55069 17.1085 7.60098 -154.106 -4.91551 176.972
lowerback -28.7978 -2.29584 -7.24914
upperback -1.45055 -1.22116 -0.685537
thorax 13.6912 -1.2492 2.66519
lowerneck -6.59221 -5.32704 2.38099
upperneck 5.17375 -7.18858 -2.58206
head 2.60379 -3.61982 -1.53776
rclavicle 6.11263e-015 -4.37326e-014
rhumerus -39.2396 -19.5415 -75.7272
rradius 30.2371
rwrist -1.91013
rhand -6.8678 -53.667
rfingers 7.12502
rthumb 18.998 -82.7592
lclavicle 6.11263e-015 -4.37326e-014
lhumerus -34.7566 18.4866 69.9793
lradius 15.1161
lwrist -15.1943
lhand -20.5413 -11.7238
lfingers 7.12502
lthumb 5.81726 18.1763
rfemur -22.2191 7.54517 19.2784
rtibia 10.0256
rfoot -22.4944 -2.94225
rtoes -6.99591
lfemur -22.9457 -8.96224 -22.6241
ltibia 8.47877
lfoot -5.8359 -7.94671
ltoes -7.51205
449
root 3.54828 17.1077 7.60287 -154.079 -4.94724 176.944
lowerback -28.8288 -2.28989 -7.27175
upperback -1.4939 -1.21309 -0.686869
thorax 13.6542 -1.24816 2.67801
lowerneck -6.71621 -5.52693 2.43844
upperneck 5.03976 -7.45827 -2.6747
head 2.56854 -3.75673 -1.58771
rclavicle 4.96962e-016 9.14409e-015
rhumerus -39.4632 -19.9831 -75.3462
rradius 29.7909
rwrist -1.32935
rhand -6.73375 -53.1025
rfingers 7.12502
rthumb 19.1269 -82.182
lclavicle 4.96962e-016 9.14409e-015
lhumerus -34.7238 18.2173 70.1538
lradius 15.2438
lwrist -14.9884
lhand -20.5893 -11.734
lfingers 7.12502
lthumb 5.77089 18.1674
rfemur -22.3037 7.58828 19.2233
rtibia 10.1413
rfoot -22.5392 -3.00551
rtoes -6.61884
lfemur -22.9853 -8.94552 -22.6799
ltibia 8.49511
lfoot -5.84554 -7.99276
ltoes -7.49615
450
root 3.54725 17.1072 7.60395 -154.098 -5.01606 176.947
lowerback -28.8538 -2.30811 -7.28719
upperback -1.51566 -1.23752 -0.660014
thorax 13.6436 -1.26123 2.70534
lowerneck -6.59508 -5.28885 2.33688
upperneck 5.3059 -7.13199 -2.61719
head 2.65079 -3.59384 -1.54378
rclavicle -5.41688e-015 9.14409e-015
rhumerus -39.6158 -20.1519 -75.1219
rradius 29.4808
rwrist -1.08493
rhand -6.74816 -53.27
rfingers 7.12502
rthumb 19.113 -82.3509
lclavicle -5.41688e-015 9.14409e-015
lhumerus -34.6485 17.5357 70.5698
lradius 15.4331
lwrist -14.2298
lhand -20.7075 -11.8433
lfingers 7.12502
lthumb 5.65679 18.0612
rfemur -22.3078 7.60529 19.2266
rtibia 10.2096
rfoot -22.61 -3.07939
rtoes -6.76317
lfemur -23.0051 -9.04009 -22.6553
ltibia 8.55213
lfoot -5.7896 -7.95218
ltoes -6.45426
451
root 3.54532 17.1083 7.60652 -154.114 -5.07743 176.904
lowerback -28.9004 -2.32001 -7.32327
upperback -1.50627 -1.23639 -0.664883
thorax 13.6755 -1.26392 2.71846
lowerneck -7.05714 -5.25319 2.43822
upperneck 5.64451 -7.07272 -3.13222
head 2.83285 -3.58362 -1.75545
rclavicle -6.16232e-015 -9.54166e-015
rhumerus -39.7055 -20.3075 -74.9651
rradius 29.2167
rwrist -0.942525
rhand -6.73809 -53.6085
rfingers 7.12502
rthumb 19.1227 -82.6884
lclavicle -6.16232e-015 -9.54166e-015
lhumerus -34.4733 16.9424 70.9349
lradius 15.5725
lwrist -13.5994
lhand -20.6821 -12.0085
lfingers 7.12502
lthumb 5.68131 17.8953
rfemur -22.3215 7.56396 19.1859
rtibia 10.2694
rfoot -22.6801 -3.06699
rtoes -6.8455
lfemur -23.0243 -9.17007 -22.6846
ltibia 8.60624
lfoot -5.77104 -7.90139
ltoes -5.83466
452
root 3.54368 17.1091 7.60728 -154.158 -5.10216 176.829
lowerback -28.8989 -2.33324 -7.37866
upperback -1.51686 -1.23538 -0.695363
thorax 13.6615 -1.26671 2.71537
lowerneck -7.27684 -5.12737 2.47138
upperneck 6.12225 -6.90446 -3.22419
head 3.03894 -3.50381 -1.80949
rclavicle 1.54555e-014 2.06736e-014
rhumerus -39.8184 -20.5382 -74.7493
rradius 28.8162
rwrist -0.647404
rhand -6.64642 -53.2297
rfingers 7.12502
rthumb 19.2108 -82.3009
lclavicle 1.54555e-014 2.06736e-014
lhumerus -34.3885 16.7016 71.0732
lradius 15.713
lwrist -13.3199
lhand -20.4541 -12.2212
lfingers 7.12502
lthumb 5.90145 17.6766
rfemur -22.2742 7.50126 19.1158
rtibia 10.2938
rfoot -22.7026 -3.0598
rtoes -7.23906
lfemur -22.9623 -9.22517 -22.7861
ltibia 8.59736
lfoot -5.86191 -7.92109
ltoes -7.1849
